<?xml version="1.0" standalone="no"?>
<!DOCTYPE svg PUBLIC "-//W3C//DTD SVG 20010904//EN"
 "http://www.w3.org/TR/2001/REC-SVG-20010904/DTD/svg10.dtd">
<svg version="1.0" xmlns="http://www.w3.org/2000/svg"
 width="300.000000pt" height="195.000000pt" viewBox="0 0 300.000000 195.000000"
 preserveAspectRatio="xMidYMid meet">
<metadata>
Created by potrace 1.10, written by Peter Selinger 2001-2011
</metadata>
<g transform="translate(0.000000,195.000000) scale(0.100000,-0.100000)"
fill="#000000" stroke="none">
<path d="M700 1522 c0 -43 14 -62 45 -62 31 0 45 19 45 62 0 49 -18 50 -22 1
-2 -30 -7 -38 -23 -38 -16 0 -21 8 -23 38 -4 49 -22 48 -22 -1z"/>
<path d="M850 1510 c0 -55 17 -69 22 -17 l3 32 20 -32 c29 -49 45 -42 45 17 0
36 -4 50 -14 50 -9 0 -12 -8 -8 -25 2 -14 0 -25 -6 -25 -5 0 -17 11 -26 25
-25 38 -36 30 -36 -25z"/>
<path d="M1000 1510 c0 -27 5 -50 10 -50 6 0 10 23 10 50 0 28 -4 50 -10 50
-5 0 -10 -22 -10 -50z"/>
<path d="M1083 1548 c2 -7 10 -30 18 -50 7 -21 18 -38 24 -38 6 0 21 23 32 50
16 37 18 50 8 50 -7 0 -18 -15 -25 -32 l-12 -33 -14 33 c-13 29 -42 48 -31 20z"/>
<path d="M1230 1510 l0 -50 40 0 c22 0 40 5 40 10 0 6 -13 10 -30 10 -16 0
-30 5 -30 10 0 6 11 10 25 10 14 0 25 5 25 10 0 6 -11 10 -25 10 -14 0 -25 5
-25 10 0 6 11 10 24 10 14 0 28 5 31 10 4 6 -10 10 -34 10 l-41 0 0 -50z"/>
<path d="M1360 1510 c0 -27 5 -50 10 -50 6 0 10 7 10 15 0 8 6 15 14 15 8 0
16 -7 20 -15 3 -8 13 -15 22 -15 13 0 14 3 5 14 -9 11 -10 20 -1 36 16 30 -3
50 -46 50 l-34 0 0 -50z m63 15 c-4 -15 -36 -12 -41 3 -3 9 3 13 19 10 13 -1
23 -7 22 -13z"/>
<path d="M1507 1553 c-14 -14 -6 -34 18 -45 33 -15 32 -32 -1 -24 -19 5 -25 3
-22 -6 6 -19 53 -22 67 -4 16 19 7 34 -27 49 l-27 11 28 4 c15 2 27 8 27 13 0
10 -53 13 -63 2z"/>
<path d="M1634 1510 c0 -35 4 -50 13 -50 9 0 13 15 13 50 0 35 -4 50 -13 50
-9 0 -13 -15 -13 -50z"/>
<path d="M1710 1550 c0 -5 7 -10 15 -10 11 0 15 -11 15 -40 0 -26 5 -40 13
-40 9 0 11 12 9 40 -4 35 -2 40 17 40 12 0 21 5 21 10 0 6 -20 10 -45 10 -25
0 -45 -4 -45 -10z"/>
<path d="M1859 1531 c12 -16 21 -39 21 -50 0 -12 5 -21 10 -21 6 0 10 9 10 21
0 11 9 34 21 50 16 24 17 29 5 29 -8 0 -20 -8 -26 -17 -10 -17 -10 -17 -20 0
-6 9 -18 17 -26 17 -12 0 -11 -5 5 -29z"/>
<path d="M2074 1535 c-15 -23 -15 -27 0 -50 29 -44 96 -24 96 29 0 50 -67 65
-96 21z m70 -11 c7 -19 -10 -44 -31 -44 -17 0 -27 24 -19 45 7 20 42 19 50 -1z"/>
<path d="M2220 1510 c0 -27 5 -50 10 -50 6 0 10 9 10 20 0 15 7 20 25 20 14 0
25 5 25 10 0 6 -11 10 -25 10 -14 0 -25 5 -25 10 0 6 14 10 30 10 17 0 30 5
30 10 0 6 -18 10 -40 10 l-40 0 0 -50z"/>
<path d="M582 1388 c3 -7 20 -57 39 -110 29 -82 37 -98 55 -98 18 0 25 12 44
70 12 39 24 70 26 70 1 0 13 -31 25 -70 19 -57 27 -70 43 -70 17 0 27 17 55
98 19 53 36 103 39 110 2 7 -5 12 -21 12 -23 0 -27 -7 -42 -57 -29 -106 -30
-106 -55 -20 -20 66 -26 78 -43 75 -16 -2 -27 -21 -46 -78 l-25 -75 -23 78
c-22 70 -26 77 -50 77 -16 0 -23 -5 -21 -12z"/>
<path d="M987 1393 c-8 -14 -87 -202 -87 -207 0 -4 11 -6 24 -6 17 0 26 7 30
25 6 22 12 25 51 25 39 0 47 -4 57 -25 7 -17 19 -25 35 -25 14 0 23 4 21 8
-66 159 -93 212 -109 212 -10 0 -20 -3 -22 -7z m34 -83 c6 -16 9 -33 7 -37 -3
-7 -48 -12 -48 -4 0 9 24 71 28 71 1 0 8 -13 13 -30z"/>
<path d="M2004 1386 c-43 -19 -64 -53 -64 -102 0 -51 27 -88 75 -104 74 -24
145 27 145 104 0 50 -21 83 -66 102 -41 17 -50 17 -90 0z m76 -41 c52 -27 49
-105 -6 -125 -53 -21 -108 39 -83 92 9 21 35 42 57 47 2 1 16 -6 32 -14z"/>
<path d="M2250 1382 c-45 -22 -62 -56 -57 -110 5 -50 26 -77 74 -93 43 -14 80
-5 115 28 55 53 41 145 -27 177 -42 20 -62 20 -105 -2z m103 -54 c35 -41 7
-110 -46 -110 -50 0 -82 46 -65 93 17 49 75 58 111 17z"/>
<path d="M1110 1370 c0 -16 7 -20 35 -20 l35 0 0 -85 c0 -78 2 -85 20 -85 18
0 20 7 20 85 l0 85 35 0 c28 0 35 4 35 20 0 19 -7 20 -90 20 -83 0 -90 -1 -90
-20z"/>
<path d="M1330 1285 l0 -105 80 0 c73 0 80 2 80 20 0 18 -7 20 -60 20 -58 0
-60 1 -60 26 0 24 2 25 53 23 47 -3 52 -1 55 19 3 20 -1 22 -52 22 -49 0 -56
2 -56 20 0 18 7 20 60 20 53 0 60 2 60 20 0 18 -7 20 -80 20 l-80 0 0 -105z"/>
<path d="M1545 1285 c0 -102 0 -105 22 -105 20 0 23 5 23 35 0 28 4 35 19 35
11 0 28 -15 41 -35 17 -27 28 -35 51 -35 l30 0 -27 35 -27 36 21 15 c16 11 22
26 22 53 0 56 -22 71 -106 71 l-69 0 0 -105z m129 50 c11 -29 -5 -45 -45 -45
-37 0 -39 2 -39 30 0 28 2 30 39 30 25 0 41 -5 45 -15z"/>
<path d="M1780 1285 l0 -105 75 0 c68 0 75 2 75 20 0 17 -7 20 -53 20 l-53 0
4 85 5 85 -27 0 -26 0 0 -105z"/>
<path d="M1203 933 c9 -221 47 -336 149 -448 25 -28 68 -63 95 -77 l49 -27 49
28 c100 57 171 155 214 295 18 57 40 253 41 364 0 9 -67 12 -301 12 l-302 0 6
-147z m574 13 c-7 -127 -26 -246 -39 -246 -5 0 -60 41 -122 90 -63 50 -117 90
-120 90 -4 0 -59 -42 -124 -94 -74 -60 -119 -90 -123 -83 -11 21 -27 139 -35
250 l-6 107 287 0 288 0 -6 -114z m-162 -199 c55 -44 104 -84 108 -88 5 -4 4
-16 -2 -28 -11 -20 -16 -17 -117 64 l-106 85 -37 -29 c-20 -16 -67 -54 -106
-85 -67 -53 -84 -57 -85 -19 0 18 222 193 235 185 5 -3 55 -42 110 -85z m-18
-93 l94 -75 -18 -31 c-22 -37 -98 -107 -145 -132 l-35 -19 -58 38 c-66 44
-141 133 -126 148 27 27 177 146 185 146 5 1 51 -33 103 -75z"/>
<path d="M1717 1043 c-4 -3 -7 -18 -6 -32 0 -24 1 -24 9 -6 10 24 12 15 10
-45 -1 -25 -6 -51 -12 -57 -8 -10 -6 -13 6 -13 9 0 16 -8 16 -20 0 -11 -4 -20
-9 -20 -14 0 -41 41 -41 62 0 20 -17 23 -40 8 -13 -9 -12 -13 8 -29 23 -20 29
-41 11 -41 -21 0 -3 -34 20 -40 14 -3 27 -12 29 -19 3 -10 -2 -11 -18 -6 -19
6 -22 4 -17 -10 4 -9 7 -18 7 -20 0 -2 9 -1 19 2 23 6 34 42 19 61 -9 11 -8
16 4 23 13 7 16 23 14 76 -1 38 1 78 5 89 10 28 -16 56 -34 37z"/>
<path d="M1240 1027 c0 -17 52 -67 69 -67 12 0 10 5 -7 18 -13 10 -24 26 -26
37 -3 19 -36 31 -36 12z"/>
<path d="M1325 1030 c-3 -5 -1 -10 4 -10 6 0 11 -4 11 -9 0 -5 -10 -7 -22 -5
l-23 5 23 -10 c28 -13 49 -5 55 20 4 15 0 19 -18 19 -13 0 -27 -4 -30 -10z"/>
<path d="M1626 1025 c-16 -12 -17 -15 -4 -15 9 0 19 6 22 13 4 6 4 2 2 -10 -6
-32 13 -28 41 7 10 13 8 16 -15 18 -15 1 -36 -5 -46 -13z"/>
<path d="M1436 1007 c-15 -22 -16 -62 -2 -85 4 -7 4 -16 1 -22 -9 -15 -35 -12
-41 5 -4 8 -17 15 -30 15 -28 0 -30 -8 -6 -26 16 -13 16 -13 0 -14 -10 0 -18
-7 -18 -15 0 -7 8 -18 18 -24 16 -9 16 -10 0 -16 -9 -4 -21 -5 -25 -2 -14 9
-32 -19 -22 -34 8 -12 10 -12 19 1 5 8 10 11 10 6 0 -5 11 1 24 13 14 13 22
29 19 37 -3 8 1 14 11 14 9 0 16 5 16 10 0 6 7 10 15 10 8 0 17 12 21 28 3 15
8 35 11 44 3 13 0 16 -13 11 -14 -5 -15 -3 -5 16 7 12 20 21 29 19 9 -1 31 2
47 6 27 8 28 9 10 16 -38 16 -74 11 -89 -13z"/>
<path d="M1574 1022 c-16 -12 -15 -32 2 -32 9 0 27 -12 40 -26 37 -40 84 -26
84 24 l0 23 -32 -24 -32 -25 -26 33 c-15 18 -31 30 -36 27z"/>
<path d="M1381 1008 c-1 -10 -11 -23 -23 -29 -43 -23 -55 -65 -14 -49 13 5 27
6 30 3 12 -12 27 51 17 72 -8 17 -10 17 -10 3z"/>
<path d="M1237 957 c-3 -8 -2 -18 1 -23 9 -12 72 -15 72 -3 0 5 -8 9 -17 9 -9
0 -24 7 -33 15 -15 13 -18 14 -23 2z"/>
<path d="M1560 959 c0 -5 -4 -7 -10 -4 -5 3 -10 1 -10 -4 0 -6 4 -11 10 -11 5
0 6 -8 3 -17 -6 -15 -4 -16 8 -6 13 10 19 10 35 -2 25 -19 34 -19 34 0 0 9 -9
15 -21 15 -12 0 -23 8 -26 20 -6 21 -23 28 -23 9z"/>
<path d="M1309 895 c-1 -3 -3 -9 -4 -15 -1 -5 -3 -13 -4 -17 -1 -5 -8 0 -16
11 -12 16 -16 16 -28 4 -11 -11 -12 -16 -1 -26 7 -6 15 -8 18 -3 4 5 15 7 26
4 11 -3 20 -1 20 5 0 6 3 17 6 26 3 9 1 16 -5 16 -6 0 -12 -2 -12 -5z"/>
<path d="M1643 861 c-6 -25 -28 -28 -37 -4 -6 14 -9 15 -16 4 -17 -28 6 -43
50 -32 14 3 29 40 19 47 -6 3 -13 -3 -16 -15z"/>
<path d="M1460 665 c-18 -13 -37 -22 -41 -19 -5 3 -9 -4 -9 -16 0 -13 5 -20
13 -17 6 2 20 0 30 -5 16 -8 17 -7 8 11 -15 27 -14 34 3 28 11 -4 13 -1 10 11
-4 12 -3 13 3 4 11 -15 39 -7 47 14 9 23 -26 17 -64 -11z"/>
<path d="M1530 661 c0 -5 -13 -14 -30 -21 -36 -15 -37 -23 -5 -44 36 -23 40
-21 42 29 1 25 0 45 -2 45 -3 0 -5 -4 -5 -9z"/>
<path d="M1550 633 c1 -4 7 -19 14 -32 11 -20 14 -21 20 -6 3 9 3 22 -1 27 -3
7 -1 8 5 4 18 -11 14 -44 -5 -55 -15 -9 -16 -12 -4 -20 12 -8 12 -12 2 -25
-17 -20 -51 -4 -51 24 0 11 -7 20 -15 20 -8 0 -15 5 -15 10 0 6 -7 10 -15 10
-8 0 -15 -7 -15 -15 0 -8 4 -15 8 -15 5 0 17 -7 28 -16 10 -8 14 -13 7 -10
-26 14 -25 -18 1 -39 20 -16 25 -25 16 -30 -7 -4 -16 -2 -20 5 -11 17 -29 4
-27 -20 1 -21 17 -29 17 -9 0 6 6 9 14 6 8 -3 22 3 31 13 15 17 16 22 4 37
-12 15 -12 16 3 10 11 -4 23 0 30 9 7 8 18 20 24 27 14 17 25 47 16 47 -4 0
-12 10 -17 23 -9 21 -55 38 -55 20z"/>
<path d="M1371 604 c-17 -20 -9 -27 33 -29 19 -2 39 -6 45 -9 6 -4 11 0 11 8
0 11 -9 16 -26 16 -15 0 -32 6 -38 14 -10 13 -13 13 -25 0z"/>
<path d="M1454 535 c6 -18 -29 -21 -40 -4 -9 15 -24 -9 -17 -27 5 -13 52 -12
73 1 16 10 12 45 -6 45 -10 0 -14 -6 -10 -15z"/>
</g>
</svg>
