<svg version="1.1" id="Layer_1" xmlns="http://www.w3.org/2000/svg" xmlns:xlink="http://www.w3.org/1999/xlink" x="0px" y="0px"
	 width="100%" viewBox="0 0 1024 800" enable-background="new 0 0 1024 800" xml:space="preserve">
<path fill="#000000" opacity="1.000000" stroke="none" 
	d="
M459.619385,549.191711 
	C457.192841,542.371582 458.162292,540.443604 464.824463,539.087463 
	C467.465607,538.549744 469.435822,537.413391 470.917389,535.201355 
	C471.934937,533.682068 473.291107,532.375366 474.210114,530.806274 
	C484.224884,513.707886 501.660645,511.486176 518.734558,508.680328 
	C520.796082,508.341553 522.097412,507.825684 523.002380,505.979980 
	C524.620483,502.679840 526.155884,499.364624 526.661011,495.679169 
	C527.619446,488.685669 532.218506,483.329956 535.334106,477.382568 
	C537.340454,473.552704 542.516052,473.729980 546.596497,473.001740 
	C551.657837,472.098358 557.025146,471.990143 561.711792,470.145081 
	C567.234924,467.970642 569.421265,462.001343 569.594238,456.802643 
	C569.901001,447.585358 572.145386,444.965973 581.970703,443.348083 
	C589.595398,442.092529 590.184265,440.533844 585.830811,433.959839 
	C583.994873,431.187531 581.874939,428.602478 579.867310,425.945038 
	C577.957275,423.416901 576.796082,420.648224 578.230347,417.586945 
	C579.492310,414.893280 581.843262,415.093384 584.576111,415.129303 
	C587.770996,415.171234 590.035339,412.496063 590.622009,409.420898 
	C591.654175,404.010223 594.510071,400.494415 599.546387,398.342163 
	C603.853821,396.501373 605.229553,393.043304 605.172546,388.277130 
	C605.103394,382.492554 602.448120,376.302917 606.949463,370.926239 
	C607.538757,370.222382 607.186401,369.318451 606.673035,368.613312 
	C604.255859,365.293274 605.579224,362.052094 606.577332,358.633820 
	C607.505554,355.455231 608.992310,354.550323 612.034851,355.870514 
	C615.809387,357.508240 618.319946,356.958344 619.087830,352.187195 
	C620.039429,346.274994 623.911804,342.952332 630.052612,342.108459 
	C629.635986,339.490845 627.513916,338.405090 626.398499,336.673462 
	C624.733704,334.088776 624.141785,331.076202 627.422058,329.992981 
	C634.247009,327.739227 637.332214,321.864655 641.275208,316.872223 
	C643.002258,314.685486 646.631958,313.027954 644.732483,308.854858 
	C644.148254,307.571411 646.111633,306.515045 647.482056,306.835876 
	C654.643250,308.512360 659.069763,303.160431 663.299255,299.545563 
	C669.298828,294.417755 674.509521,288.038666 680.450134,282.919281 
	C688.163208,276.272461 692.815918,267.333344 700.094421,260.567200 
	C701.420593,259.334351 702.827087,257.848267 704.462769,257.345947 
	C712.153503,254.984299 718.456360,249.625549 726.236633,247.503403 
	C730.463989,246.350388 731.969421,242.676620 733.488098,239.144775 
	C736.680969,231.719681 741.423889,229.268616 749.274536,231.032867 
	C752.596191,231.779327 755.641907,233.031265 759.394409,231.421783 
	C763.810059,229.527786 765.746399,226.702850 767.496643,222.325043 
	C771.124023,213.251343 775.732788,204.548386 780.321411,195.896317 
	C781.403748,193.855637 783.910217,192.488007 785.927979,191.043243 
	C789.857361,188.229721 793.821899,185.488113 797.312256,182.106552 
	C805.925659,173.761856 811.643494,173.363144 823.079651,180.213654 
	C824.061340,180.801666 824.990417,181.477402 826.556702,182.520447 
	C830.084534,176.017029 835.261841,171.120743 841.998169,168.974640 
	C850.927551,166.129807 860.277710,163.502060 869.387634,168.525803 
	C876.572693,172.488098 878.105774,180.837021 871.657349,185.866013 
	C864.362366,191.555206 860.357300,199.717453 853.974548,206.013565 
	C850.268616,209.669128 850.646851,215.613663 848.711670,220.383743 
	C844.903503,229.770859 842.512268,239.353394 846.338623,249.478836 
	C847.714172,253.118927 847.400696,256.977203 846.675720,260.828491 
	C845.722778,265.890533 845.678772,270.934723 846.532654,276.125244 
	C849.029907,291.306366 846.020142,305.700653 837.759949,318.515564 
	C830.405823,329.924805 824.554810,342.042358 819.769287,354.564331 
	C815.272034,366.332062 814.605408,378.429321 824.571655,388.576508 
	C824.801270,388.810333 824.976929,389.109100 825.133118,389.401428 
	C828.888062,396.429138 835.149414,402.561005 832.097412,411.841949 
	C827.472290,425.906494 819.870239,437.308441 805.626709,443.169556 
	C804.704651,443.548981 803.727051,443.791199 802.789734,444.136353 
	C796.814026,446.336975 795.417664,450.875580 799.538086,455.760162 
	C802.468994,459.234650 805.142029,462.740234 806.608887,467.111237 
	C807.536682,469.875977 807.385620,472.433441 805.598389,474.676819 
	C800.723267,480.796112 795.641235,487.356140 789.631287,491.699402 
	C780.783936,498.093231 778.215271,507.936005 772.199341,515.728699 
	C771.757385,516.301208 771.825134,517.267273 771.651306,518.071411 
	C774.730957,520.205688 778.236755,519.800354 781.410034,520.602356 
	C786.930054,521.997375 791.046997,524.842773 793.348022,530.217590 
	C800.967407,548.015442 805.039917,566.573303 805.504089,585.924316 
	C805.575012,588.879028 804.325806,591.428711 802.905884,593.895508 
	C800.468567,598.129822 797.364502,601.761902 791.968445,601.178833 
	C786.959106,600.637634 785.661011,596.285217 784.411682,592.259827 
	C782.754456,586.919739 781.213013,581.543701 779.223206,576.244568 
	C779.626343,581.392212 779.367004,586.404785 778.279480,591.390686 
	C777.816162,593.514771 777.673828,595.748840 778.740295,597.761230 
	C782.765503,605.356812 782.504883,613.464844 781.833252,621.670593 
	C781.390503,627.080505 782.408325,631.984436 787.506470,635.123840 
	C790.793579,637.147888 792.004211,639.830078 790.320557,643.585449 
	C789.428955,645.574097 789.369385,647.749817 789.282837,649.941223 
	C789.106995,654.388977 785.457153,656.301636 781.633667,654.037170 
	C779.897766,653.009094 778.500061,651.532166 777.529968,649.743469 
	C776.255920,647.394531 776.417603,645.474548 779.501953,644.971619 
	C782.994934,644.401978 783.420471,642.222534 781.269714,640.252075 
	C774.341125,633.904175 773.437317,626.193176 774.438538,617.409729 
	C775.112244,611.500061 774.501953,605.445435 771.250916,600.003601 
	C768.472229,595.352417 770.952576,590.609131 771.471436,585.077637 
	C768.381226,587.684265 765.802002,590.030640 763.047302,592.148865 
	C756.922363,596.858459 749.937683,595.959656 746.081909,590.087219 
	C741.686218,583.392517 743.253418,576.112488 749.978149,572.264160 
	C751.492859,571.397278 752.732422,570.772583 752.205688,568.496399 
	C749.732788,557.810791 753.595093,548.277161 757.939636,538.875671 
	C758.697021,537.236694 760.083984,536.794556 761.677673,537.546204 
	C763.873596,538.582031 764.322266,540.495544 763.593201,542.598755 
	C761.956116,547.321228 760.286682,552.044922 759.663513,557.016663 
	C759.199890,560.715759 757.960449,564.689880 762.092712,568.051941 
	C762.663025,563.147888 764.778503,559.112793 766.974792,555.118469 
	C768.632019,552.104431 766.929443,549.249573 766.588318,546.350525 
	C765.939880,540.840271 766.471313,534.824951 760.468628,531.422302 
	C759.417053,530.826233 759.307617,529.369080 759.944458,528.244690 
	C760.633606,527.028015 761.797119,527.130981 763.026489,527.391479 
	C768.026001,528.451233 772.731567,533.524841 773.485291,538.749756 
	C774.055298,542.701233 774.595886,546.657288 775.208801,550.602051 
	C775.779175,554.273193 774.479370,557.447571 772.889343,560.632874 
	C771.747437,562.920227 769.786316,565.053894 770.705078,567.980408 
	C772.673218,569.257568 774.323853,567.880981 775.996948,567.473572 
	C781.551270,566.121155 784.651184,567.471191 786.524719,572.901611 
	C788.531250,578.717285 790.081238,584.689575 791.890930,590.574951 
	C792.167297,591.473694 792.322144,592.586670 793.817322,593.008240 
	C797.050842,590.211975 799.125732,586.260498 798.467468,582.199036 
	C795.970337,566.790771 793.935059,551.276001 788.001770,536.580933 
	C785.603516,530.641113 781.852417,528.037537 775.825317,527.280579 
	C761.594177,525.493347 759.694397,521.609375 766.879211,509.224976 
	C770.722473,502.600403 774.797668,496.108826 778.839905,489.601807 
	C781.241089,485.736359 784.435303,482.583221 788.062805,479.849396 
	C789.779602,478.555603 791.636292,477.377808 791.720642,474.817810 
	C791.798950,472.440979 793.093323,471.949066 795.422485,472.132294 
	C799.058838,472.418396 799.512756,470.176270 798.404907,467.270996 
	C797.552368,465.035278 795.833740,463.410431 794.360657,461.607727 
	C785.820129,451.156036 788.598206,441.054749 801.191650,436.596954 
	C813.977234,432.071136 820.907776,422.304626 824.537720,409.863892 
	C826.476074,403.220825 822.052429,398.320892 818.658203,393.535889 
	C807.464600,377.755890 807.114746,359.273956 816.411865,342.166565 
	C822.434570,331.084442 828.894836,320.173462 834.372986,308.891144 
	C839.074646,299.208130 841.435974,288.100433 838.999695,276.848236 
	C837.895508,271.748383 837.744751,266.570953 838.867310,261.516113 
	C840.033691,256.264008 839.468811,251.266724 837.839661,246.294540 
	C834.941589,237.449753 837.718567,229.217499 840.412109,220.946930 
	C841.854248,216.519165 843.231750,212.067276 844.500854,207.587296 
	C845.531433,203.949509 847.188721,200.822479 850.331665,198.543884 
	C851.381287,197.782867 852.403748,196.774673 853.011169,195.648834 
	C855.911987,190.271774 859.802490,185.848999 864.713196,182.193161 
	C866.793152,180.644699 869.313354,178.489258 866.195801,175.722198 
	C863.643494,173.456879 860.812988,172.190781 858.222961,176.014709 
	C857.029175,177.777420 855.618774,180.002060 853.049988,178.881409 
	C850.289490,177.677139 852.090088,175.124603 852.043396,172.512939 
	C844.721558,175.569443 837.796204,178.400803 833.794678,185.654999 
	C830.105347,192.343262 827.159851,192.515945 820.594360,188.303635 
	C811.702148,182.598511 811.036743,181.388046 801.108826,188.509277 
	C789.891602,196.555328 782.943115,206.924255 777.167603,218.762711 
	C775.772522,221.622314 774.646606,224.522919 773.759216,227.578094 
	C771.477783,235.433029 761.029785,241.537415 752.969360,239.875687 
	C751.502380,239.573242 750.028198,239.259369 748.603760,238.805191 
	C744.154602,237.386673 741.382202,238.582687 739.883850,243.322845 
	C737.951294,249.436279 733.499451,252.997269 727.430176,255.288177 
	C713.771790,260.443634 702.558350,268.194885 693.311340,280.431061 
	C684.692749,291.835632 674.014893,302.294403 661.437683,310.077881 
	C660.597290,310.597900 659.692017,311.152008 659.100464,311.911163 
	C656.445862,315.317841 653.215759,316.036499 649.159851,313.929901 
	C646.769958,320.971436 642.485718,326.654083 638.274780,332.333069 
	C636.653503,334.519623 636.157227,335.916046 637.910400,338.367035 
	C641.345215,343.169189 639.991150,347.582886 634.269104,349.029449 
	C629.400513,350.260284 626.063049,351.881012 625.719299,357.486267 
	C625.589844,359.597443 623.824402,361.338043 622.084167,362.711487 
	C615.098572,368.224670 611.733398,375.276825 613.128662,384.228149 
	C614.673401,394.139008 611.471313,401.532867 602.092651,405.805481 
	C600.323181,406.611603 598.768066,407.829773 598.638123,409.770599 
	C598.272888,415.228699 594.679565,418.418030 590.792786,421.352295 
	C588.544434,423.049652 588.403503,424.475952 590.098572,426.693451 
	C591.909119,429.062164 593.546448,431.631287 594.837769,434.315735 
	C598.285706,441.483826 595.143738,448.093262 587.432129,450.230835 
	C585.992798,450.629761 584.503357,451.017212 583.024658,451.071442 
	C579.223938,451.210907 577.445557,452.524780 577.556335,456.846863 
	C577.729248,463.590179 572.742249,468.708588 570.768250,474.844788 
	C570.266907,476.403229 568.390686,477.182159 566.639160,477.275879 
	C559.282349,477.669373 552.411438,480.585724 545.077454,481.268188 
	C540.492004,481.694855 538.432739,485.730774 536.489685,489.395844 
	C534.033447,494.028961 534.345398,499.483765 532.232361,504.223328 
	C530.945801,507.109161 529.680298,510.019501 528.149841,512.777039 
	C526.770447,515.262451 524.566772,516.656433 521.553345,516.434326 
	C510.873749,515.647278 501.587830,521.033508 491.619080,523.376953 
	C487.605133,524.320557 485.994507,528.858032 483.327881,531.774841 
	C480.754517,534.589661 478.517212,537.734375 476.330658,540.872437 
	C474.744354,543.148987 472.866486,544.931885 470.226379,545.775452 
	C468.278931,546.397705 466.839172,547.182800 465.810272,549.289246 
	C464.284180,552.413574 461.931427,552.782532 459.619385,549.191711 
M756.196899,587.438293 
	C760.581177,585.214966 763.789673,581.695862 767.119385,577.822998 
	C765.005066,576.418762 763.250244,574.989807 761.935547,572.951599 
	C759.564209,574.922668 757.768127,577.079834 755.211304,578.402161 
	C750.040222,581.076416 750.201050,584.240295 756.196899,587.438293 
z"/>
<path fill="#000000" opacity="1.000000" stroke="none" 
	d="
M203.402893,658.692383 
	C199.769028,650.253235 202.584473,643.351868 207.004166,636.696960 
	C208.492935,634.455383 210.865540,633.906860 213.604446,633.265198 
	C211.133301,631.833069 208.864731,631.827209 206.557861,631.775330 
	C204.561218,631.730469 202.272903,631.613892 201.905426,629.012878 
	C201.534256,626.385620 203.857544,625.847595 205.635071,625.027039 
	C207.996735,623.936829 210.422333,623.636414 212.896286,624.674194 
	C216.867310,626.339905 220.761597,626.309570 225.013657,625.270264 
	C232.210541,623.511169 239.077789,626.603333 246.026978,627.882812 
	C248.965271,628.423889 249.822800,631.868347 251.920013,634.322144 
	C254.833298,633.359802 257.849365,633.601013 260.966125,634.573669 
	C267.310547,636.553589 269.621277,635.821167 271.532288,629.334717 
	C274.396240,619.613892 280.539276,612.018555 286.016968,603.930786 
	C288.390778,600.425903 291.995605,598.184387 294.999542,595.329895 
	C297.315918,593.128784 300.092224,594.173950 302.497498,595.330994 
	C306.430206,597.222717 308.720734,595.839905 310.287842,592.129089 
	C310.929413,590.609924 311.645172,588.986938 312.760162,587.827637 
	C316.399750,584.043701 317.031067,579.517883 315.649811,574.880432 
	C312.828461,565.407837 315.138580,557.179199 320.804382,549.526550 
	C321.293823,548.865479 321.652496,548.100891 322.017517,547.357727 
	C322.155853,547.076111 322.140472,546.718994 322.257477,546.027954 
	C318.267365,544.729980 314.402618,543.677368 309.910797,543.913818 
	C300.026794,544.434448 290.042938,545.665771 280.669800,540.236206 
	C276.137604,537.610840 265.816132,543.064880 263.774963,548.592224 
	C262.075836,553.193298 259.089661,557.087158 257.988770,562.143677 
	C256.875916,567.255066 250.881256,566.728455 246.773376,568.129700 
	C245.738098,568.482849 244.479904,568.182556 243.445496,568.182556 
	C241.936584,569.379333 242.432404,571.048828 242.056961,572.444763 
	C241.337250,575.120850 240.141113,578.305847 237.577682,578.647522 
	C231.392548,579.471924 231.222778,584.160522 230.562866,588.339539 
	C229.876663,592.684998 227.670273,594.442932 223.510193,594.301758 
	C222.845856,594.279175 222.174438,594.305054 221.513214,594.374451 
	C211.401642,595.435486 208.972366,598.775391 210.926529,608.910339 
	C212.037155,614.670471 207.654007,621.673340 201.965164,623.231750 
	C200.780273,623.556396 199.600845,623.665833 198.820297,622.500916 
	C198.073578,621.386353 198.190735,620.083801 199.205612,619.327393 
	C204.258453,615.561218 203.508408,610.809998 202.470367,605.417908 
	C200.874115,597.126160 206.858063,589.149902 215.244705,587.719727 
	C220.181961,586.877808 224.212189,586.159302 224.642685,579.536438 
	C225.174805,571.350342 226.061356,571.069031 234.219650,570.691956 
	C234.498398,569.491943 234.794174,568.220947 235.088882,566.949707 
	C236.697479,560.010864 237.601395,559.283203 244.523926,559.828308 
	C248.110016,560.110718 249.876785,559.132446 251.310364,555.209412 
	C255.408295,543.995300 262.336700,535.060547 274.744019,531.950378 
	C277.959381,531.144409 281.263519,531.353394 283.965118,533.061951 
	C291.622620,537.904663 300.056519,537.327576 308.206421,536.167053 
	C314.871552,535.217957 320.911285,538.435608 327.462769,537.528931 
	C329.710602,537.217773 331.005676,539.789368 331.169983,542.140747 
	C331.317230,544.248108 331.200958,546.373840 331.200958,548.717346 
	C333.383423,545.085144 336.320312,542.283997 340.536041,541.178894 
	C343.247284,540.468079 345.829681,540.866516 346.753479,543.728088 
	C347.626617,546.432739 345.201416,547.526184 343.164185,548.256348 
	C338.277008,550.007996 336.741638,554.277771 335.271057,558.534363 
	C331.792755,568.602112 329.711029,578.933777 329.238129,589.620239 
	C329.016205,594.635315 327.031921,598.975952 322.313324,601.633972 
	C320.525696,602.641052 319.579468,604.490112 318.580139,606.239441 
	C317.176910,608.695862 316.047028,611.431458 314.175323,613.475342 
	C307.295319,620.988342 300.316620,628.538940 293.068665,635.552490 
	C285.210327,643.156616 273.220978,644.285950 262.976959,648.090271 
	C261.599060,648.601929 260.173279,648.723694 258.935699,649.775574 
	C249.368454,657.907532 233.945587,655.646851 226.402740,645.079956 
	C222.784851,640.011658 219.830399,639.089355 214.578873,641.388916 
	C211.308701,642.820862 208.595322,648.949951 209.805374,653.021362 
	C212.563446,662.301147 212.267639,671.780823 211.982727,681.266785 
	C211.918274,683.411987 211.807907,685.959595 209.277374,686.674438 
	C206.289230,687.518616 206.127182,684.435364 204.805603,682.617554 
	C199.517487,682.859009 194.599564,685.397644 190.821121,688.299988 
	C186.187103,691.859497 181.933563,691.780212 177.331818,690.292358 
	C172.509964,688.733154 169.879791,689.917542 168.094009,694.669861 
	C165.891907,700.530212 160.932053,704.625671 157.513763,709.739502 
	C154.122498,714.813049 154.447876,716.710815 159.199646,720.512878 
	C163.981354,724.338867 166.612137,729.398193 165.973770,735.697937 
	C165.853439,736.885376 165.543213,737.943176 166.223007,739.019897 
	C169.275589,743.855225 171.140915,749.246094 172.938431,754.587708 
	C175.253159,761.466309 180.904709,765.469788 185.423340,770.474548 
	C186.289139,771.433472 187.378052,771.619934 188.610245,771.474304 
	C195.376999,770.674683 202.202744,770.907410 208.972687,769.581482 
	C216.454971,768.116089 224.192535,766.653381 229.845978,774.510986 
	C231.694931,777.080872 233.758224,775.491150 234.436768,772.893921 
	C234.987534,770.785706 234.526398,768.636597 234.118057,766.476868 
	C233.172546,761.475891 235.924942,757.556885 240.872299,757.508789 
	C246.570709,757.453247 251.673004,755.929443 256.564331,753.210999 
	C262.112854,750.127258 267.763336,749.136414 273.657562,752.440125 
	C277.619263,754.660706 281.414124,753.246643 285.121857,751.547180 
	C292.733521,748.058411 299.585358,743.285339 306.507599,738.664062 
	C315.880249,732.406860 325.418823,726.781860 337.181946,726.587524 
	C339.139801,726.555176 341.476715,726.346985 342.971100,725.282837 
	C350.432373,719.969788 357.920593,723.026733 365.421295,724.778992 
	C368.980316,725.610474 371.879517,724.763733 373.247284,721.304626 
	C377.629333,710.222168 386.607056,709.035583 396.717285,710.036621 
	C398.323639,710.195679 399.921783,711.114807 402.496155,709.674622 
	C395.864075,699.928345 398.333466,691.029480 406.193481,683.195068 
	C410.095367,679.305969 414.895569,677.194153 420.534485,677.057617 
	C428.149841,676.873169 438.580200,685.922546 435.568390,695.674255 
	C443.572479,691.435364 449.650299,697.806335 456.796265,698.105042 
	C460.030792,698.240417 462.466522,700.500549 464.286224,703.366943 
	C466.283478,706.513000 469.039062,707.607666 472.170227,704.799255 
	C475.772644,701.568054 480.147675,701.452271 484.330261,702.273010 
	C491.890533,703.756409 498.605042,701.299866 505.047913,698.261841 
	C512.342896,694.822144 519.038940,694.299011 526.486023,698.057373 
	C533.193481,701.442444 539.906677,704.778564 545.722839,709.478638 
	C549.079651,712.191223 552.528259,712.664368 555.876709,711.060364 
	C559.934937,709.116394 562.808044,709.798950 565.595703,712.976562 
	C567.567505,715.224121 569.814697,717.235168 571.727844,719.527832 
	C574.329895,722.646301 577.038330,722.517273 579.953064,720.174011 
	C581.119263,719.236511 582.145142,718.126648 583.276428,717.143066 
	C586.268738,714.541321 589.057800,714.903015 591.442017,717.946167 
	C592.562866,719.376831 593.508667,720.974426 594.342957,722.594666 
	C597.530823,728.785889 602.154663,733.386597 608.849792,735.580261 
	C614.917358,737.568359 619.118286,742.280823 624.155518,745.766785 
	C625.409607,746.634705 626.291870,748.018982 625.511719,749.673279 
	C624.716553,751.359253 623.180908,752.019836 621.394897,751.905762 
	C620.591919,751.854370 619.607971,751.658752 619.053284,751.150085 
	C612.328186,744.982788 603.417603,742.399841 596.175354,737.138428 
	C592.106323,734.182373 589.741394,729.599976 586.821655,725.678467 
	C584.187744,725.713684 583.061340,727.998596 581.051575,728.763428 
	C575.589417,730.841980 569.477600,729.354431 565.947205,724.513062 
	C563.225952,720.781189 560.612915,718.453552 555.254883,719.768921 
	C549.783447,721.112183 544.913635,719.208435 540.277649,715.115540 
	C533.931213,709.512451 526.137268,705.814575 518.024109,703.060425 
	C515.376221,702.161621 513.153442,703.431702 510.826294,704.264099 
	C503.635406,706.835938 496.621521,710.032410 488.625244,709.252197 
	C486.172272,709.012878 483.871307,706.303467 481.056702,708.655701 
	C483.581207,711.245117 485.872864,713.690979 489.492981,714.877136 
	C492.352661,715.814026 494.576691,718.321045 494.695770,721.642944 
	C494.813049,724.914490 492.367493,726.622131 489.781464,727.988037 
	C487.566559,729.157959 485.240143,730.016052 482.750671,730.475159 
	C475.105408,731.885132 469.563049,726.356384 471.130646,718.791931 
	C471.428162,717.356262 471.874878,715.951538 472.369629,714.093628 
	C465.833740,715.515930 461.585327,712.373352 457.947784,707.907715 
	C457.528625,707.393127 457.064178,706.516418 456.596771,706.500244 
	C450.256104,706.280579 444.990173,700.974304 438.130371,702.913208 
	C430.940582,704.945374 427.279022,701.717407 427.734131,694.232849 
	C428.147522,687.434448 423.690613,683.702576 417.118530,685.344116 
	C409.293701,687.298523 404.917664,696.464539 408.503357,703.606323 
	C410.588806,707.760071 411.408875,711.990723 408.426086,715.851624 
	C405.556274,719.566162 401.394745,718.872314 397.353271,718.039246 
	C387.933289,716.097534 384.911530,717.411011 379.743744,725.520142 
	C377.844666,728.500183 375.349182,729.985168 371.630554,730.469727 
	C365.362335,731.286438 359.227081,732.520325 353.098083,729.903687 
	C352.588287,729.686035 351.706543,729.871887 351.197998,730.190247 
	C345.298584,733.883789 338.499329,733.892151 331.962555,734.881897 
	C325.329926,735.886108 319.762390,739.162903 314.279266,742.674194 
	C304.893372,748.684937 295.976288,755.455444 285.497589,759.654053 
	C280.743439,761.558960 276.103394,762.027405 271.487488,759.740234 
	C267.149841,757.591003 263.148438,758.091064 259.191711,760.543396 
	C255.151276,763.047546 250.663300,764.379517 246.029510,764.980591 
	C243.022034,765.370667 242.042358,766.716431 242.254929,769.562561 
	C242.415573,771.713379 242.261978,773.861206 241.617188,775.987732 
	C239.023193,784.542725 230.687881,787.023071 224.748734,780.379395 
	C220.980682,776.164490 217.099243,775.986328 212.263611,776.778503 
	C204.225754,778.095154 196.185516,779.411682 187.972549,779.347900 
	C184.333786,779.319641 182.022644,777.720215 179.281113,775.479919 
	C170.334122,768.168457 165.838760,758.361389 162.264862,747.875183 
	C161.320831,745.105225 159.454575,743.899597 156.526825,744.294983 
	C155.708359,744.405640 154.859955,744.358704 154.029861,744.308411 
	C150.181091,744.075439 145.920944,744.183899 144.968140,739.225586 
	C144.323242,735.869507 149.529282,731.065247 153.809494,730.549133 
	C154.602020,730.453613 155.396957,730.378174 156.179276,730.294678 
	C156.774734,727.590149 154.645325,727.023621 153.330521,725.973694 
	C146.661896,720.648682 145.355270,714.085388 149.895569,707.083130 
	C154.398819,700.138062 160.241577,694.173828 163.659821,686.370544 
	C165.530304,682.100525 170.430786,681.374146 175.007126,681.854858 
	C176.467987,682.008423 177.901474,682.422546 179.303146,682.708435 
	C182.563782,674.703064 182.624847,674.558594 190.319183,677.810608 
	C193.040436,678.960754 194.722504,676.783630 196.871918,676.702698 
	C203.921021,676.437012 205.060013,672.523193 203.899429,666.594849 
	C203.425095,664.171814 203.623734,661.617065 203.402893,658.692383 
M294.065033,606.577332 
	C287.802307,614.878418 280.608887,622.661377 278.846588,633.914185 
	C284.601715,633.434143 289.009216,630.808167 291.587158,626.150391 
	C294.266205,621.310059 297.713928,617.614563 302.331238,614.659180 
	C305.933655,612.353516 308.724213,609.143738 310.077576,604.375122 
	C304.607208,605.426331 299.002014,599.515869 294.065033,606.577332 
M228.212143,632.487854 
	C227.452606,632.721375 226.280762,632.882996 227.154129,634.006714 
	C229.493408,637.016602 231.827118,640.053772 234.428375,642.831604 
	C238.253067,646.916016 246.686249,648.020935 253.047180,644.765930 
	C247.292786,644.911438 245.797607,641.402161 244.368439,637.821350 
	C243.664001,636.056335 242.736465,634.636841 240.570709,634.335083 
	C236.639923,633.787354 232.733704,633.063354 228.212143,632.487854 
M322.232635,567.038147 
	C322.529327,568.374207 322.281708,569.900635 323.609711,571.035339 
	C324.940430,565.075623 327.496338,559.561951 328.321564,552.935547 
	C324.511200,557.100403 322.169617,561.161255 322.232635,567.038147 
M480.540009,718.656860 
	C479.987976,718.277039 479.498596,716.858948 478.762329,718.207092 
	C478.025116,719.557129 477.922852,721.298279 479.398712,722.209839 
	C481.218414,723.333801 482.987823,722.795349 484.775574,721.221008 
	C483.215668,720.335205 482.081482,719.691162 480.540009,718.656860 
z"/>
<path fill="#000000" opacity="1.000000" stroke="none" 
	d="
M660.561829,752.702637 
	C652.060669,755.159668 644.068176,754.830811 636.118103,752.120728 
	C634.106323,751.434998 632.022583,750.743835 632.686707,748.158997 
	C633.277283,745.860413 635.477295,745.857483 637.246094,746.441040 
	C648.694763,750.218018 659.206848,744.672302 670.072205,743.057617 
	C674.502869,742.399231 677.970825,739.152588 680.558228,735.142883 
	C689.631226,721.082153 702.157715,710.600952 716.014282,701.561523 
	C718.810669,699.737305 721.772644,698.235474 724.965759,697.182983 
	C731.156982,695.142334 733.940063,689.862122 731.937683,683.546814 
	C731.324097,681.611633 730.945923,679.845520 732.521729,678.515686 
	C734.321594,676.996948 734.907349,675.018494 735.608215,672.968201 
	C736.422668,670.585876 737.926392,668.661743 740.727356,669.298950 
	C743.576538,669.947021 743.219727,672.351990 742.980408,674.585144 
	C742.697083,677.228638 742.514832,679.884216 742.360596,682.538757 
	C742.335022,682.979431 742.675720,683.441345 742.832520,683.854858 
	C753.441833,684.595642 762.737427,678.072449 764.650391,668.121155 
	C765.601379,663.174255 768.257874,659.659607 771.891968,656.580933 
	C776.324036,652.826233 786.479919,655.799255 788.193420,661.353943 
	C788.567871,662.567810 788.427490,663.664429 787.386292,664.510986 
	C786.343018,665.359253 785.274963,665.134827 784.111084,664.684570 
	C775.547485,661.372681 773.669800,662.376709 772.033020,671.585815 
	C771.039429,677.176941 768.092896,680.904846 763.543884,684.414917 
	C757.047974,689.427185 750.194519,692.255249 742.094177,692.389404 
	C739.952087,692.424866 738.847961,693.812134 738.194763,695.692200 
	C736.508118,700.547058 732.899597,702.982544 728.088928,704.418640 
	C721.129150,706.496338 715.181519,710.349365 709.878235,716.447815 
	C713.093567,715.629883 715.623779,715.011230 718.139221,714.337402 
	C719.799805,713.892517 721.414001,713.844299 723.029846,714.519775 
	C724.485657,715.128418 725.867554,715.960144 725.769287,717.684875 
	C725.664368,719.527344 724.143127,719.946045 722.531555,720.106873 
	C716.494934,720.709290 711.739990,724.020142 706.360046,727.671814 
	C710.941589,729.169617 714.671814,727.759644 718.419739,726.961121 
	C719.440857,726.743530 720.274902,726.228149 720.165161,724.938110 
	C719.864746,721.408264 722.196716,720.837891 724.937561,720.679016 
	C727.436035,720.534180 729.658569,720.990967 730.774902,723.527710 
	C732.060913,726.450134 730.875488,728.884155 728.591858,730.564087 
	C721.638184,735.679688 713.614075,736.702148 705.297058,735.921204 
	C701.361450,735.551697 697.229675,735.361511 693.802246,731.029724 
	C685.718140,742.996521 676.349304,752.652466 660.561829,752.702637 
z"/>
<path fill="#000000" opacity="1.000000" stroke="none" 
	d="
M631.781738,553.613281 
	C630.960938,556.145325 629.998596,558.108826 627.364990,558.178894 
	C625.141296,558.238037 623.322144,556.930725 622.593872,555.080627 
	C614.202820,533.763245 605.985657,512.382019 615.058716,489.071289 
	C615.900208,486.909180 616.925781,484.806213 618.016113,482.755646 
	C622.130310,475.018280 629.033081,471.445404 635.850525,473.445068 
	C642.150757,475.293030 647.379578,483.594208 647.010376,491.157532 
	C646.252686,506.681458 643.652161,521.786926 637.582092,536.235168 
	C635.274658,541.727539 633.783325,547.562744 631.781738,553.613281 
M637.814880,506.566315 
	C638.370117,501.454132 639.187805,496.352539 639.395447,491.226288 
	C639.554016,487.311493 638.341309,483.506348 634.766785,481.306183 
	C632.211975,479.733734 629.259033,480.487610 627.477844,482.614441 
	C621.788574,489.407471 619.744751,497.510956 619.157532,506.732269 
	C625.244080,503.035614 629.320129,502.652435 632.199951,505.210419 
	C634.027466,506.833771 634.463623,508.966431 633.450256,511.115479 
	C630.582764,517.196716 625.099243,517.163086 619.128540,516.478333 
	C620.213196,526.419434 623.048828,535.516907 625.909912,545.845154 
	C628.644653,538.406738 631.277344,532.179504 633.201233,525.740479 
	C634.995422,519.735718 637.954102,513.975037 637.814880,506.566315 
z"/>
<path fill="#000000" opacity="1.000000" stroke="none" 
	d="
M664.307617,603.881531 
	C666.670471,609.447998 670.433838,614.141541 669.567383,620.515808 
	C669.286804,622.579651 670.802124,624.929749 671.642029,627.092163 
	C672.501404,629.304260 672.175598,631.157227 669.957520,632.100037 
	C667.781799,633.024780 665.998169,632.049866 665.030579,629.971252 
	C664.406372,628.630432 664.042358,627.152344 663.693176,625.704041 
	C663.332642,624.208374 663.072754,622.675049 661.198853,622.407776 
	C659.125488,622.112122 657.746765,623.044128 656.781494,624.896362 
	C655.475098,627.402954 654.050110,629.850586 652.602295,632.279541 
	C651.694397,633.802856 649.989319,635.348694 648.551270,634.412598 
	C643.849365,631.352051 638.028015,632.284546 633.765930,632.721924 
	C626.595215,633.457581 622.395386,629.709045 617.355469,626.632263 
	C615.586426,628.587585 614.871033,631.835938 611.639709,630.788452 
	C608.917847,629.906128 608.024292,627.255981 607.913269,624.763306 
	C607.661865,619.117554 607.776550,613.454407 607.789490,607.798401 
	C607.795593,605.119019 610.140747,604.912292 611.885437,604.108337 
	C617.112488,601.699646 622.338196,602.949463 625.584412,607.343262 
	C628.874878,611.796875 626.501465,615.095337 623.413513,618.278564 
	C623.077637,618.624878 622.878540,619.103882 622.569275,619.595703 
	C623.404175,622.072388 625.500610,622.998474 628.402710,624.202942 
	C628.668274,618.693359 630.263428,613.844788 632.828003,609.227112 
	C633.659180,607.730469 634.200195,606.241943 635.773743,605.572266 
	C638.099304,604.582581 641.095825,602.247742 642.763123,605.485168 
	C644.387817,608.639893 640.980835,609.658325 638.677673,610.327332 
	C635.270386,611.317017 635.846191,613.718750 635.885132,616.139893 
	C637.750122,616.463928 638.948608,615.399109 640.315735,614.899963 
	C641.841431,614.342896 643.630981,613.145935 644.759216,615.101074 
	C646.001404,617.253662 643.994507,618.311035 642.618103,619.490173 
	C640.542542,621.268311 637.441162,621.710693 635.932129,624.308960 
	C640.264038,629.234558 644.442200,619.476929 648.562622,625.047424 
	C651.295044,620.534302 653.443848,616.400269 653.999023,611.422363 
	C654.661743,605.481262 659.536682,601.941650 664.307617,603.881531 
z"/>
<path fill="#000000" opacity="1.000000" stroke="none" 
	d="
M565.137390,616.893921 
	C566.530762,619.723755 567.777954,622.212158 569.340332,625.329590 
	C571.918335,620.637268 571.452393,615.991333 572.864380,611.864014 
	C573.801208,609.125671 573.989807,606.248718 578.851562,607.581177 
	C581.893005,608.414673 585.780823,606.165039 589.287598,605.293579 
	C592.070068,604.602234 594.924622,604.426025 597.713684,604.874329 
	C600.135925,605.263733 601.690002,607.506470 599.665283,609.085327 
	C594.676758,612.975098 596.319702,618.025024 596.274231,622.838684 
	C596.261841,624.155762 596.565735,625.477539 596.745117,626.794312 
	C597.021179,628.820618 596.516968,630.653625 594.431519,631.177368 
	C591.953125,631.799805 590.695740,630.002747 590.276062,627.911987 
	C589.552124,624.305786 589.650208,620.634460 590.026855,616.975830 
	C590.159851,615.683960 590.814148,614.392273 589.986877,612.884399 
	C586.801636,611.336304 583.255371,613.185181 579.504272,612.111023 
	C579.643311,617.485352 579.059753,622.551575 577.269043,627.421448 
	C576.080200,630.654419 574.692932,633.760071 570.755310,634.148376 
	C566.930847,634.525513 564.543518,632.080383 562.766296,629.137085 
	C561.072632,626.332336 559.696777,623.335693 557.783142,619.658447 
	C556.650330,623.128662 555.812378,625.914062 554.825623,628.645691 
	C554.113708,630.616272 552.988037,632.471924 550.492004,631.753723 
	C547.944214,631.020630 547.451538,628.919495 547.915527,626.538330 
	C548.682007,622.604553 550.624512,618.797363 549.259216,613.754761 
	C546.983582,617.739624 546.903381,621.688721 544.915100,624.928284 
	C541.935303,629.783508 538.762939,631.573853 534.832153,630.073486 
	C531.399597,628.763184 529.312805,624.198792 530.093628,619.513000 
	C530.725220,615.722717 531.507751,611.940186 534.077759,608.899231 
	C536.513794,606.016846 539.397400,604.165588 543.180481,606.494263 
	C544.787292,607.483276 546.007080,606.771606 547.372742,606.180176 
	C556.199158,602.357849 559.815186,603.879700 563.404480,612.890564 
	C563.896545,614.125793 564.460510,615.332520 565.137390,616.893921 
z"/>
<path fill="#000000" opacity="1.000000" stroke="none" 
	d="
M449.930298,550.859009 
	C452.127350,550.001465 454.021606,549.628967 454.977600,551.854004 
	C455.765167,553.687012 454.320679,554.901184 453.197540,556.162292 
	C448.617737,561.304871 442.355194,562.008057 436.225739,561.802490 
	C426.940277,561.491211 417.634735,560.946838 408.410645,559.542175 
	C405.394226,559.082886 403.009644,557.841064 401.356842,555.360291 
	C394.811646,545.535889 384.371857,543.652954 373.936890,542.489624 
	C368.326904,541.864258 362.218292,541.120605 357.162781,545.302551 
	C356.319031,546.000427 355.191620,545.785461 354.463959,544.925415 
	C353.207428,543.440308 353.456879,541.756836 354.389893,540.284790 
	C356.407471,537.101440 359.701508,535.385925 363.151947,535.066223 
	C376.890198,533.793030 389.961823,535.779968 401.473816,544.179565 
	C405.355957,547.012146 407.118774,552.756165 413.178711,552.609863 
	C425.319580,552.316833 437.682037,557.097473 449.930298,550.859009 
z"/>
<path fill="#000000" opacity="1.000000" stroke="none" 
	d="
M473.370697,392.267944 
	C464.704407,386.720947 455.201630,383.430328 446.270538,378.972046 
	C444.935120,378.305420 443.594574,377.587646 442.415863,376.685211 
	C441.152161,375.717682 440.495117,374.361572 441.196289,372.718536 
	C441.865204,371.151093 443.133270,370.498352 444.790619,370.557831 
	C445.286530,370.575623 445.837097,370.564423 446.264893,370.769897 
	C459.375000,377.066254 473.299591,381.776276 485.461121,390.629364 
	C487.898773,388.056274 486.434784,385.606842 484.661285,383.349579 
	C481.964661,379.917450 478.493408,377.288391 475.062378,374.639679 
	C473.746948,373.624176 472.344666,372.725830 471.584290,371.135651 
	C470.905579,369.716248 470.376099,368.330811 471.620453,366.979248 
	C472.786011,365.713257 474.351624,365.398041 475.716248,366.274597 
	C483.008209,370.958710 490.523987,375.524475 493.776337,384.212708 
	C495.796204,389.608459 493.766327,394.744568 488.536469,397.214569 
	C480.126953,401.186279 471.430481,400.895966 462.767181,398.029602 
	C460.889709,397.408417 458.792114,396.303833 459.750000,393.706238 
	C460.646881,391.274109 462.668915,392.395538 464.453888,392.564911 
	C467.420013,392.846375 470.365570,393.696167 473.384460,393.113617 
	C473.522919,393.086914 473.701172,392.939484 473.738525,392.812317 
	C473.772278,392.697418 473.638214,392.533264 473.370697,392.267944 
z"/>
<path fill="#000000" opacity="1.000000" stroke="none" 
	d="
M514.174561,621.268433 
	C512.608337,623.000244 511.340820,624.562073 509.868439,625.898132 
	C504.315704,630.936829 499.300751,630.055969 495.732178,623.504761 
	C495.185699,622.501526 494.595276,621.522156 493.509094,619.635193 
	C492.115479,623.365479 491.104340,626.403748 489.846405,629.336060 
	C488.806274,631.760681 487.697113,634.787598 484.290863,633.889465 
	C480.725189,632.949402 481.536957,629.788757 482.058167,627.209167 
	C483.176086,621.676086 484.570160,616.198364 485.658691,610.660095 
	C486.395142,606.913269 489.039246,605.406128 492.267670,604.847534 
	C495.635101,604.264893 496.808838,607.049438 497.933929,609.468018 
	C499.194855,612.178650 500.250061,614.984314 501.436829,617.730408 
	C502.790771,620.863403 504.757019,620.811218 506.636078,618.368530 
	C508.758270,615.609802 510.625366,612.648621 512.511230,609.716187 
	C514.126160,607.205078 515.415344,604.006897 519.005798,604.354126 
	C522.817078,604.722595 523.610840,608.043762 524.532166,611.182007 
	C525.813904,615.548218 525.466492,620.294983 528.643433,624.282837 
	C530.279114,626.335999 528.190308,628.813538 525.926514,629.817261 
	C523.139709,631.052795 520.853943,629.694946 519.921448,627.051331 
	C518.883179,624.107971 518.471069,620.943787 517.712585,617.544922 
	C515.852417,618.175354 515.409851,619.897400 514.174561,621.268433 
z"/>
<path fill="#000000" opacity="1.000000" stroke="none" 
	d="
M618.885498,554.935669 
	C614.612854,563.021118 616.885132,567.308350 625.617126,567.852356 
	C628.767395,568.048645 631.943787,567.858032 635.107422,567.798401 
	C638.054443,567.742920 640.308533,566.567139 641.158875,563.563843 
	C642.043640,560.438416 641.348206,557.538086 638.955688,555.398560 
	C637.229187,553.854614 634.291992,552.652832 636.649231,550.050110 
	C638.909363,547.554626 642.368530,547.608887 644.722717,550.017395 
	C648.830811,554.220459 650.068848,559.591797 648.699280,565.261902 
	C647.371582,570.758606 643.730591,574.238525 638.049744,575.211670 
	C632.598816,576.145386 627.127747,576.193665 621.657349,575.198730 
	C611.057251,573.270813 606.153198,563.466248 611.367676,554.561829 
	C613.705627,550.569458 616.476135,550.574585 618.885498,554.935669 
z"/>
<path fill="#000000" opacity="1.000000" stroke="none" 
	d="
M306.698181,148.659424 
	C305.030029,152.513214 303.552521,156.040924 302.032043,159.550018 
	C301.011078,161.906189 299.480286,163.638824 296.652191,162.521545 
	C294.057007,161.496246 294.030304,159.194321 294.772064,157.033524 
	C298.321228,146.694611 303.736542,137.386963 310.699341,128.979233 
	C311.766174,127.691032 313.066803,126.298080 314.918030,127.544281 
	C316.991852,128.940338 316.028320,130.734573 315.165894,132.396210 
	C312.408020,137.709717 309.636658,143.016205 306.698181,148.659424 
z"/>
<path fill="#000000" opacity="1.000000" stroke="none" 
	d="
M308.549805,257.494446 
	C309.607300,259.227142 310.500427,260.627380 311.341522,262.058228 
	C312.536804,264.091553 312.208557,265.918762 310.338226,267.325989 
	C308.303406,268.856995 306.413727,268.127625 305.168945,266.304108 
	C299.626984,258.185638 294.883789,249.626816 291.914124,240.208618 
	C291.202209,237.950806 291.843903,235.752838 294.449768,235.039337 
	C296.823364,234.389435 298.235229,235.929321 299.014374,237.926132 
	C301.616882,244.595901 304.949677,250.903427 308.549805,257.494446 
z"/>
<path fill="#000000" opacity="1.000000" stroke="none" 
	d="
M689.385498,633.004395 
	C686.299316,633.196716 683.636536,633.408813 680.980591,633.342773 
	C675.788818,633.213684 673.906067,630.964478 674.536255,625.661072 
	C675.220337,619.903625 677.466187,614.376282 677.016846,608.438049 
	C676.908569,607.006836 677.580383,605.734741 679.217041,605.620667 
	C681.034180,605.493896 681.807434,606.732788 682.250244,608.322510 
	C683.454041,612.644653 682.812378,616.961487 681.859802,621.155518 
	C681.111450,624.450439 681.782288,625.937622 685.308960,625.775635 
	C686.627686,625.714966 687.992554,625.819458 689.279602,626.104919 
	C691.139465,626.517517 693.700134,626.298767 694.035706,628.874451 
	C694.412964,631.770325 691.803528,632.149963 689.385498,633.004395 
z"/>
<path fill="#000000" opacity="1.000000" stroke="none" 
	d="
M338.358582,302.697571 
	C335.657410,303.874603 333.916779,302.917969 332.303741,301.180237 
	C326.642090,295.080811 321.513428,288.546539 316.470367,281.941528 
	C314.921204,279.912567 314.092041,277.769684 316.627899,275.886047 
	C318.897064,274.200531 320.741150,275.363373 322.236908,277.154663 
	C327.775116,283.787354 333.279480,290.448730 338.746246,297.140381 
	C340.152344,298.861511 340.488922,300.719971 338.358582,302.697571 
z"/>
<path fill="#000000" opacity="1.000000" stroke="none" 
	d="
M294.390839,193.395599 
	C294.325531,197.995819 294.296844,202.133331 294.246185,206.270569 
	C294.214874,208.829330 293.451782,211.023697 290.493256,211.150436 
	C287.788452,211.266312 286.908722,209.284866 286.555206,206.940887 
	C285.475098,199.778580 286.643829,192.757019 287.945770,185.764465 
	C288.314880,183.781952 289.827850,182.635925 291.966309,182.873245 
	C294.093384,183.109268 295.286316,184.469589 295.207794,186.558594 
	C295.127686,188.690201 294.695953,190.808578 294.390839,193.395599 
z"/>
<path fill="#000000" opacity="1.000000" stroke="none" 
	d="
M371.479492,42.418259 
	C369.221954,39.965458 369.516785,37.650471 370.934967,35.311939 
	C374.041260,30.189674 377.385468,25.229856 381.211517,20.613577 
	C382.525116,19.028622 384.131409,17.403221 386.243835,19.061953 
	C388.125702,20.539619 386.940277,22.247612 385.988800,23.910376 
	C383.101074,28.956848 380.348999,34.080788 377.524353,39.163601 
	C376.283417,41.396599 375.007477,43.624081 371.479492,42.418259 
z"/>
<path fill="#000000" opacity="1.000000" stroke="none" 
	d="
M360.467712,60.371490 
	C358.168243,66.875572 355.024475,72.495605 351.004730,77.604111 
	C349.927612,78.972939 348.633270,80.838448 346.516327,79.498032 
	C344.519226,78.233490 345.206573,76.188133 346.044769,74.586838 
	C349.037720,68.869133 352.164490,63.220753 355.292999,57.575165 
	C356.155640,56.018478 357.420044,54.887688 359.347412,55.778072 
	C361.270630,56.666519 361.230011,58.284355 360.467712,60.371490 
z"/>
<path fill="#000000" opacity="1.000000" stroke="none" 
	d="
M381.021088,341.405457 
	C377.798431,339.270233 374.837891,337.425507 372.066589,335.330475 
	C370.246246,333.954376 369.010559,332.069550 370.723206,329.781555 
	C372.325684,327.640656 374.333099,327.766754 376.406281,329.157898 
	C379.158325,331.004578 381.917664,332.840424 384.665039,334.694000 
	C386.619019,336.012299 387.953125,337.742004 386.832489,340.129852 
	C385.687714,342.569153 383.613831,342.689850 381.021088,341.405457 
z"/>
<path fill="#000000" opacity="1.000000" stroke="none" 
	d="
M410.212921,350.491089 
	C413.720947,352.436371 416.903534,354.174683 420.009979,356.039825 
	C422.115021,357.303772 423.051758,359.253845 421.742645,361.486542 
	C420.391663,363.790649 418.192627,363.623199 416.110565,362.484955 
	C413.074890,360.825348 410.099854,359.053741 407.115387,357.301910 
	C405.196136,356.175385 404.184143,354.513214 405.020813,352.331635 
	C405.868713,350.120758 407.629639,349.517273 410.212921,350.491089 
z"/>
<path fill="#000000" opacity="1.000000" stroke="none" 
	d="
M322.824158,110.787941 
	C321.850708,106.840523 326.679901,95.294464 329.781555,93.519684 
	C332.330505,92.061157 334.318878,92.584007 334.957153,95.672874 
	C335.398315,97.807701 327.589813,110.693214 325.439636,111.409462 
	C324.772797,111.631584 323.883057,111.184509 322.824158,110.787941 
z"/>
<path fill="#000000" opacity="1.000000" stroke="none" 
	d="
M342.722626,312.135315 
	C340.511719,309.778137 338.123444,307.532043 341.135529,304.785034 
	C343.836945,302.321320 345.958588,304.609680 347.918854,306.414368 
	C349.859833,308.201294 351.851471,309.945312 353.659760,311.860291 
	C355.032288,313.313843 355.400970,315.074249 353.904755,316.743439 
	C352.324493,318.506439 350.455811,318.652222 348.626984,317.221619 
	C346.680878,315.699341 344.865814,314.009460 342.722626,312.135315 
z"/>
<path fill="#000000" opacity="1.000000" stroke="none" 
	d="
M662.883240,668.995728 
	C665.256836,669.391235 666.110779,670.607544 665.065430,672.461365 
	C664.323364,673.777222 662.840820,674.011047 661.741821,672.931580 
	C660.201721,671.418762 660.758789,670.039429 662.883240,668.995728 
z"/>
</svg>